<?xml version="1.0" standalone="no"?>
<!DOCTYPE svg PUBLIC "-//W3C//DTD SVG 1.1//EN" "http://www.w3.org/Graphics/SVG/1.1/DTD/svg11.dtd" >
<!--
2013-9-30: Created.
-->
<svg>
<metadata>
Created by iconfont
</metadata>
<defs>

<font id="iconfont" horiz-adv-x="1024" >
  <font-face
    font-family="iconfont"
    font-weight="500"
    font-stretch="normal"
    units-per-em="1024"
    ascent="896"
    descent="-128"
  />
    <missing-glyph />
    
    <glyph glyph-name="shoppingcart" unicode="&#58992;" d="M970.624 695.744c-20.544 24.512-50.688 38.592-83.392 38.592L212.672 729.28C207.36 756.928 203.968 772.864 201.536 780.736c-22.208 75.52-139.392 52.352-149.312 50.24C35.968 827.648 25.472 811.648 28.864 795.456 32.192 779.52 48 768.704 64.384 771.968c11.456 2.304 24.64 3.584 37.056 3.584 23.552 0 40.128-4.672 42.304-11.904 9.536-32.768 45.12-242.432 102.848-606.336 8.448-53.44 53.888-92.352 107.968-92.544l541.888-1.856 0.128 0c16.448 0 29.952 13.504 30.08 30.144 0 16.512-13.44 30.08-30.016 30.208l-541.696 1.856c-24.448 0.128-44.928 17.664-48.704 41.728L305.728 170.24l517.568 41.216c58.112 4.608 106.112 47.872 116.736 105.216l53.952 290.048C999.744 638.592 991.168 670.976 970.624 695.744zM887.872 673.92c14.016 0 27.264-6.144 36.288-16.96 9.216-10.688 12.992-24.896 10.496-39.04l-54.016-290.112c-5.824-30.656-31.36-53.696-62.336-56.064l-522.368-41.6c-31.552 197.76-55.936 345.344-72.384 438.912L887.488 673.92 887.488 677.696 887.872 673.92zM359.424-32.256m-68.288 0a1.067 1.067 0 1 0 136.576 0 1.067 1.067 0 1 0-136.576 0ZM795.392-32.256m-68.288 0a1.067 1.067 0 1 0 136.576 0 1.067 1.067 0 1 0-136.576 0Z"  horiz-adv-x="1024" />

    
    <glyph glyph-name="previewleft" unicode="&#59227;" d="M629.291 55.168l60.331 60.331-268.501 268.501 268.501 268.501-60.331 60.331-328.832-328.832z"  horiz-adv-x="1024" />

    
    <glyph glyph-name="previewright" unicode="&#59228;" d="M689.621 384l-328.832 328.832-60.331-60.331 268.501-268.501-268.501-268.501 60.331-60.331z"  horiz-adv-x="1024" />

    
    <glyph glyph-name="circle" unicode="&#59023;" d="M950.848 384q0-119.424-58.848-220.288t-159.712-159.712-220.288-58.848-220.288 58.848-159.712 159.712-58.848 220.288 58.848 220.288 159.712 159.712 220.288 58.848 220.288-58.848 159.712-159.712 58.848-220.288z"  horiz-adv-x="1024" />

    
    <glyph glyph-name="check" unicode="&#58892;" d="M950.834375 691.333125c-15.093750000000002 14.15625-38.8125 13.5-52.96875-1.6875l-499.6875-532.03125-273 268.96875c-14.71875 14.53125-38.53125 14.34375-53.0625-0.375-14.53125-14.71875-14.34375-38.53125 0.375-52.96875l300.375-295.875c0.09375-0.09375 0.28125-0.1875 0.375-0.28125 0.09375-0.09375 0.1875-0.28125 0.28125-0.375 2.34375-2.25 5.25-3.5625 7.96875-5.0625 1.3125-0.75 2.53125-1.96875 3.9375-2.53125 4.40625-1.6875 9.09375-2.625 13.78125-2.625 4.875 0 9.84375 0.9375 14.34375 2.90625 1.5 0.65625 2.71875 1.96875 4.125 2.8125 2.8125 1.6875 5.71875 3 8.15625 5.4375 0.09375 0.09375 0.1875 0.28125 0.28125 0.375 0.09375 0.09375 0.1875 0.1875 0.375 0.28125l526.03125 559.96875C966.678125 653.458125 965.928125 677.176875 950.834375 691.333125z"  horiz-adv-x="1024" />

    
    <glyph glyph-name="loading1" unicode="&#59084;" d="M1024 384a64 64 0 1 0-128 0 384 384 0 1 1-384-384 64 64 0 1 0 0-128 512 512 0 1 0 512 512z"  horiz-adv-x="1024" />

    
    <glyph glyph-name="edit" unicode="&#58925;" d="M318.577778 355.555556s0-2.844444-2.844445-2.844445L267.377778 156.44444399999998c-2.844444-11.377778 0-22.755556 8.533333-31.288888 5.688889-5.688889 14.222222-8.533333 22.755556-8.533334h8.533333l187.733333 51.2c2.844444 0 5.688889 0 5.688889 2.844445L1001.244444 688.355556c14.222222 14.222222 22.755556 34.133333 22.755556 56.888888 0 25.6-11.377778 51.2-28.444444 71.111112l-48.355556 48.355555C930.133333 884.622222 904.533333 896 878.933333 896c-22.755556 0-42.666667-8.533333-56.888889-22.755556L318.577778 355.555556zM870.4 822.044444c8.533333 8.533333 22.755556 5.688889 31.288889-2.844444l48.355555-48.355556c5.688889-5.688889 8.533333-11.377778 8.533334-19.911111 0-5.688889-2.844444-11.377778-5.688889-14.222222l-51.2-51.2-79.644445 85.333333 48.355556 51.2z m-99.555556-102.4l79.644445-85.333333-361.244445-372.622222-82.488888 82.488889L770.844444 719.644444zM369.777778 292.97777799999994l71.111111-71.111111-99.555556-25.6 28.444445 96.711111z m614.4 156.444444c-19.911111 0-34.133333-17.066667-34.133334-36.977778v-369.777777c0-68.266667-65.422222-99.555556-96.711111-99.555556H164.977778c-42.666667 0-88.177778 45.511111-96.711111 125.155556V719.644444c0 102.4 71.111111 99.555556 96.711111 99.555556h401.066666c19.911111 0 34.133333 17.066667 34.133334 36.977778 0 19.911111-14.222222 36.977778-34.133334 36.977778H162.133333C102.4 890.311111 0 853.333333 0 753.777778v-688.355556C0-71.11111100000005 82.488889-128 162.133333-128h696.888889c88.177778 0 162.133333 56.888889 162.133334 164.977778V412.444444c-2.844444 19.911111-19.911111 36.977778-36.977778 36.977778z"  horiz-adv-x="1024" />

    
    <glyph glyph-name="delete" unicode="&#59017;" d="M404.764 581.6890000000001a32.996 32.996 0 0 1-32.71-32.711v-461.654a32.996 32.996 0 0 1 65.706 0V548.9780000000001a32.996 32.996 0 0 1-32.996 32.71z m221.014 0a33.28 33.28 0 0 1-34.134-32.711v-461.654a33.28 33.28 0 0 1 34.134-32.71 32.711 32.711 0 0 1 32.995 32.71V548.9780000000001a32.996 32.996 0 0 1-32.995 32.71zM954.311 735.573H712.533V823.467a44.373 44.373 0 0 1-12.8 31.289 43.804 43.804 0 0 1-31.004 12.8H360.96a43.804 43.804 0 0 1-31.004-12.8 44.658 44.658 0 0 1-13.085-31.29v-87.893H75.093a32.996 32.996 0 0 1 0-67.129h67.13l42.666-725.333a44.373 44.373 0 0 1 14.222-29.867 43.804 43.804 0 0 1 29.867-12.8h571.449a43.804 43.804 0 0 1 44.089 44.09l42.666 723.91h67.13a32.996 32.996 0 1 1 0 65.707zM382.862 801.564h263.68v-65.99h-263.68z m398.222-835.128H250.027l-41.53 702.008h612.694z"  horiz-adv-x="1024" />

    
    <glyph glyph-name="close" unicode="&#58936;" d="M579.648 384.192l271.552-271.488a48 48 0 0 0-67.84-67.84L511.744 316.288 240.256 44.8a48 48 0 1 0-67.84 67.84l271.488 271.552-271.552 271.552a48 48 0 1 0 67.904 67.84l271.552-271.488 271.488 271.552a48 48 0 0 0 67.84-67.904L579.712 384.192z"  horiz-adv-x="1024" />

    
    <glyph glyph-name="a" unicode="&#58896;" d="M982.404293 457.261778a30.302751 30.302751 0 0 0-42.940534-5.166829l-44.383523 35.423032V-73.827686A30.721683 30.721683 0 0 0 864.52147-104.78211H153.221404a30.744957 30.744957 0 0 0-30.558765 30.954424V501.319465l-61.536463-49.224516a30.651861 30.651861 0 0 0-18.945038-6.63309 30.488943 30.488943 0 0 0-23.995496 11.799919 31.187163 31.187163 0 0 0 5.073732 43.499111L481.431388 866.791127a30.302751 30.302751 0 0 0 37.843529 0l458.26511-366.030238c13.173085-10.543123 15.500486-30.070011 4.864266-43.499111z m-148.325218 79.038513L500.353153 802.857442 181.894976 548.519142c1.326618-3.467826 2.001564-7.168393 2.001564-10.868959V-42.873263h650.182535V536.300291zM327.892794 468.689313c31.326807 0 56.788566-25.787595 56.788566-57.51006 0-31.745739-25.461759-57.533334-56.788566-57.533334-31.326807 0-56.788566 25.787595-56.788567 57.533334 0 31.722465 25.461759 57.51006 56.788567 57.51006z m0-164.174814c31.326807 0 56.788566-25.787595 56.788566-57.533334 0-31.722465-25.461759-57.51006-56.788566-57.51006-31.326807 0-56.788566 25.787595-56.788567 57.51006 0 31.862109 25.461759 57.533334 56.788567 57.533334z m0-164.03517c31.326807 0 56.788566-25.810869 56.788566-57.533334 0-31.745739-25.461759-57.533334-56.788566-57.533334-31.326807 0-56.788566 25.787595-56.788567 57.533334 0 31.838835 25.461759 57.533334 56.788567 57.533334z m186.19202 164.03517c31.326807 0 56.788566-25.787595 56.788566-57.533334 0-20.504396-10.752589-39.449434-28.347735-49.783092a55.99725 55.99725 0 0 0-56.788566 0 57.579882 57.579882 0 0 0-28.440831 49.783092c0 31.862109 25.461759 57.533334 56.788566 57.533334z m0-164.03517c31.326807 0 56.788566-25.810869 56.788566-57.533334 0-20.52767-10.752589-39.472708-28.347735-49.806366a55.99725 55.99725 0 0 0-56.788566 0 57.603156 57.603156 0 0 0-28.440831 49.806366c0 31.838835 25.461759 57.533334 56.788566 57.533334z m186.285116 0c31.326807 0 56.788566-25.810869 56.788567-57.533334 0-31.745739-25.461759-57.533334-56.788567-57.533334-31.326807 0-56.788566 25.787595-56.788566 57.533334 0 31.838835 25.368663 57.533334 56.788566 57.533334z"  horiz-adv-x="1024" />

    
    <glyph glyph-name="b" unicode="&#58897;" d="M914.990347 493.726067A37.057962 37.057962 0 0 0 877.688582 530.296424V749.71857a73.140715 73.140715 0 0 1-73.140715 73.140715H146.28143a73.140715 73.140715 0 0 1-73.140715-73.140715v-731.407152a73.140715 73.140715 0 0 1 73.140715-73.140715h219.422146a36.326555 36.326555 0 1 0 0-73.140715H146.28143a146.28143 146.28143 0 0 0-146.28143 146.28143V749.71857a146.28143 146.28143 0 0 0 146.28143 146.28143h660.704461a146.28143 146.28143 0 0 0 146.28143-146.28143v-219.422146a36.082753 36.082753 0 0 0-38.276974-36.570357zM219.422145 712.660607h511.985007A35.83895 35.83895 0 0 0 767.977509 676.577855a36.570358 36.570358 0 0 0-36.570357-36.326556H219.422145a36.326555 36.326555 0 0 0 0 73.140715z m109.467271-438.844291a36.326555 36.326555 0 1 0 0-73.140715H219.422145a36.326555 36.326555 0 1 0 0 73.140715z m-106.054037 219.422146H463.224529A37.301765 37.301765 0 0 0 502.720516 457.155709 38.520777 38.520777 0 0 0 463.224529 420.585351H222.591576a36.570358 36.570358 0 1 0 0 73.140716zM731.407152 457.155709a292.562861 292.562861 0 1 0-206.744422-85.574637A290.368639 290.368639 0 0 0 731.407152 457.155709z m0-511.985006a219.422145 219.422145 0 1 1-219.422146 219.422145 219.422145 219.422145 0 0 1 219.422146-219.422145zM743.353468 289.663471a83.136613 83.136613 0 0 1-64.851434-24.380238 89.719277 89.719277 0 0 1-22.673621-64.851434h30.475298a69.727482 69.727482 0 0 0 12.677724 44.372034 48.760477 48.760477 0 0 0 42.909219 17.309969 48.760477 48.760477 0 0 0 37.78937-13.409131 48.760477 48.760477 0 0 0 13.165328-35.351346 48.760477 48.760477 0 0 0-12.677724-30.7191 167.979842 167.979842 0 0 0-13.165328-13.896736 160.665771 160.665771 0 0 1-39.008382-44.859639 76.797751 76.797751 0 0 1-5.851257-32.425717v-8.776886h30.7191V91.452133a53.636524 53.636524 0 0 0 7.314072 28.037274 79.479577 79.479577 0 0 0 18.041376 21.210808 379.844114 379.844114 0 0 1 31.206705 29.743891 73.140715 73.140715 0 0 1 14.628144 45.103441 70.215087 70.215087 0 0 1-21.698413 54.367931 83.624218 83.624218 0 0 1-59.000177 19.747993z m-5.851257-234.781695a22.186017 22.186017 0 0 1-16.578562-6.582665 20.723203 20.723203 0 0 1-6.582664-16.090957 22.186017 22.186017 0 0 1 6.582664-16.578562 24.380238 24.380238 0 0 1 33.157124 0 21.210807 21.210807 0 0 1 6.826467 16.578562 22.186017 22.186017 0 0 1-6.582664 16.090957 22.917424 22.917424 0 0 1-16.822365 6.338862z"  horiz-adv-x="1024" />

    
    <glyph glyph-name="d" unicode="&#58898;" d="M928.060952-128H95.939048A96.158476 96.158476 0 0 0 0-32.060952V521.947429c0 40.155429 14.872381 99.669333 33.450667 135.338666l87.771428 165.10781C142.774857 864.01219 196.315429 896 243.175619 896h537.648762c46.86019 0 100.400762-32.719238 121.953524-74.361905l87.747047-168.057905C1009.127619 617.886476 1024 558.372571 1024 518.241524v-550.302476A96.158476 96.158476 0 0 0 928.060952-128z m5.948953 752.566857L846.262857 792.624762c-11.142095 20.821333-42.374095 39.424-65.438476 39.424H242.41981c-23.04 0-54.272-18.602667-65.414096-39.424l-87.015619-165.083429c-5.217524-8.923429-8.94781-20.821333-12.653714-31.987809h868.571429c-3.705905 10.435048-7.43619 20.821333-11.897905 29.013333z m26.038857-106.325333c0 3.705905 0 8.192-0.75581 12.629333H64.707048c0-2.974476-0.75581-6.680381-0.75581-8.923428v-554.008381c0-17.846857 14.140952-31.98781 31.98781-31.98781h831.390476c17.846857 0 31.963429 14.140952 31.963428 31.98781h0.75581V518.241524zM644.729905 115.175619a33.28 33.28 0 0 0-12.629334-8.167619 35.05981 35.05981 0 0 0-12.653714-2.998857c-8.167619 0-16.359619 3.730286-22.28419 9.654857l-87.771429 87.771429a32.085333 32.085333 0 1 0 45.372952 45.372952l64.682667-64.707048 161.377524 172.519619c11.897905 11.897905 31.98781 12.653714 43.861333 0 12.653714-11.897905 13.409524-31.98781 2.243048-44.617142l-182.198857-194.828191z m-229.034667 128.658286H223.841524c-17.115429 0.731429-31.232 14.872381-31.232 31.963428 0 17.115429 14.116571 31.232 31.232 31.98781h192.609524c11.142095 0 21.552762-5.973333 26.770285-15.628191 5.948952-9.679238 5.948952-22.308571 0-31.987809-5.217524-10.386286-16.359619-16.335238-27.526095-16.335238z m-192.609524-72.874667h95.939048c17.846857 0 31.963429-14.140952 31.963428-31.987809a31.695238 31.695238 0 0 0-31.963428-31.963429H223.085714A31.939048 31.939048 0 0 0 192.609524 138.971429a31.939048 31.939048 0 0 0 30.47619 31.987809z"  horiz-adv-x="1024" />

    
    <glyph glyph-name="feedback" unicode="&#58900;" d="M1085.674656 729.922109L497.874036 134.807353a39.020921 39.020921 0 0 0-55.441158-0.146283 39.715764 39.715764 0 0 0-0.109712 55.843436L1030.123785 785.619262a39.020921 39.020921 0 0 0 55.441159 0.146283c15.323117-15.396258 15.396258-40.410607 0.109712-55.843436zM279.69333 683.294486a61.073044 61.073044 0 0 0 86.599382 0l24.831495-24.977778 24.831495 24.977778a61.073044 61.073044 0 0 0 86.599382 0c23.844087-24.136652 23.844087-63.121002 0-87.221084l-24.794924-25.014348-86.635953-87.257655-111.430877 112.272003a62.170164 62.170164 0 0 0 0 87.221084z m621.628503 133.738995H78.40828v-865.99382h861.934474V457.982496c0 21.832699 17.517358 39.49634 39.167203 39.496339 10.422645 0 20.406442-4.132487 27.720579-11.556336 7.387278-7.423849 11.519766-17.444217 11.519766-27.940003V-48.99691A78.700114 78.700114 0 0 0 940.525607-127.989589H78.225427A78.700114 78.700114 0 0 0 0.000731-48.99691V817.033481C0.000731 860.552596 34.998877 895.879877 78.225427 895.989589h823.096406c21.613275 0 39.203774-17.663641 39.203774-39.459769s-17.590499-39.49634-39.203774-39.496339z"  horiz-adv-x="1097" />

    
    <glyph glyph-name="e" unicode="&#58901;" d="M984.795429-3.876571h-304.030477c-3.82781 0-5.753905-1.950476-7.655619-3.876572l-116.638476-112.493714c-5.753905-5.802667-13.385143-7.753143-21.040762-7.753143-7.655619 0-15.311238 1.950476-21.040762 7.753143l-116.638476 112.493714c-1.926095 1.926095-5.753905 3.876571-7.655619 3.876572H87.966476C40.155429-3.876571 0 34.913524 0 83.382857V806.790095C0 857.209905 40.155429 896 87.966476 896h906.410667C1036.434286 896 1070.86019 861.086476 1072.761905 818.41981V85.333333c0-50.41981-40.155429-89.209905-87.966476-89.209904z m9.581714 773.827047a49.737143 49.737143 0 0 1-49.737143 50.395429H126.19581c-28.672 0-49.712762-23.259429-49.712762-50.395429v-645.827047a49.737143 49.737143 0 0 1 49.712762-50.41981h284.94019c9.557333 0 17.212952-3.876571 22.942476-9.703619l13.385143-11.629714 80.310857-77.580191a11.53219 11.53219 0 0 1 15.311238 0l80.310857 77.580191 9.557334 9.679238a38.570667 38.570667 0 0 0 28.672 11.654095h283.014095c28.696381 0 49.737143 23.259429 49.737143 50.41981V769.950476z m-210.358857-366.567619c-34.840381 0-63.097905 28.672-63.097905 64 0 35.352381 28.257524 64 63.097905 64s63.097905-28.647619 63.097904-64c0-35.328-28.257524-64-63.097904-64z m-217.039238 10.264381a63.975619 63.975619 0 0 0-63.097905 0 61.878857 61.878857 0 0 0-31.548953 53.735619c0 34.279619 28.233143 62.073905 63.097905 62.073905 34.840381 0 63.097905-27.794286 63.097905-62.073905 0-22.162286-12.01981-42.642286-31.548952-53.735619z m-246.686477-1.682286a62.317714 62.317714 0 0 0-63.097904 0 64.121905 64.121905 0 0 0-31.548953 55.417905c0 35.352381 28.257524 64 63.097905 64 34.864762 0 63.097905-28.647619 63.097905-64a64.121905 64.121905 0 0 0-31.548953-55.417905z"  horiz-adv-x="1072" />

    
    <glyph glyph-name="c" unicode="&#58902;" d="M1020.785008 38.40477V457.645202a130.719113 130.719113 0 0 1-43.070147 96.116995c-26.231423 24.868752-62.999215 35.624122-98.550337 34.18845 5.864353 6.351022 12.191042 12.191042 17.203725 19.247733a21.948742 21.948742 0 0 1-4.891016 27.983429A158477.21472 158477.21472 0 0 1 640.332041 880.365313c-4.647683 4.063681-8.68703 9.344032-14.89205 10.75537-7.76236 2.506342-16.473723-0.584002-21.705408-6.570022-24.236083-25.087752-48.447832-49.956504-72.318914-75.311924a86.164628 86.164628 0 0 0-2.14134-7.884027l1.435671 7.032357c-44.846487 27.983429-90.057974 55.48019-134.928794 83.341952-8.346362 5.864353-21.705407 3.942013-26.255756-5.864354-60.225206-99.207339-120.231411-198.804012-180.359283-298.035685-34.602118-0.949003-70.615575 4.209681-103.684688-8.83303-31.609108-11.82604-57.62153-37.059793-71.929579-67.671231-9.538699-19.831734-12.288375-42.09681-12.653376-63.948218v-424.520784c-0.243334-24.406417 1.557339-49.494169 11.947707-71.832245C32.750966-94.893685 80.249795-126.940795 130.108965-126.940795h762.901273c53.436183 0 104.147022 37.303127 121.08308 88.354635 8.954697 24.747085 6.326688 51.270508 6.69169 76.99093zM611.131942 803.009382c3.552679 4.793683 9.7577 5.645353 15.135385 4.574682 6.083354-2.895677 10.366035-8.273362 15.159718-12.799377 56.672527-56.185859 114.02639-111.666048 170.698917-167.608572 5.134351-5.158684 6.083354-14.478383 0.730002-19.734401-6.083354-6.570022-12.410042-12.775044-18.493396-19.369399H405.684906c68.474234 71.613245 136.948468 143.226489 205.447036 214.937067z m-219.755084-5.596686c2.84701 5.256018 10.487702 6.448355 15.135385 3.090344 24.35775-14.819051 48.326165-30.246437 72.902915-44.822153-27.569761-30.003102-56.429193-58.570533-84.339621-88.232968-25.063419-26.888425-51.197508-52.70618-76.358261-79.497272-17.885061-0.121667-35.916123 0-53.801184 0 42.461812 69.690905 84.096287 139.746811 126.460766 209.462049z m560.568915-811.495105a64.726888 64.726888 0 0 0-42.94848-43.289148c-10.268702-3.455345-21.121405-2.749676-31.852443-2.749676-249.198518 0-498.299702-0.121667-747.522553 0-32.801445 0.243334-62.147546 29.540768-62.269213 62.780214-0.121667 147.29017 0 294.677673-0.121667 441.967844-0.121667 10.75537-0.462335 21.875741 3.455345 32.022776 7.640693 24.625417 31.511774 42.924147 56.915861 44.116484 254.113868 0.365001 508.081736 0 762.195604 0.121667 33.872116 1.216671 64.897222-29.029766 64.653888-63.24255 0.121667-147.411837 0-294.79934 0-442.308511 0.365001-9.806367 0.730002-19.977735-2.506342-29.4191z m-79.570272 331.275131a122.543085 122.543085 0 0 1-95.678994 34.431785 124.00309 124.00309 0 0 1-88.500635-48.666833 124.879093 124.879093 0 0 1-25.428421-77.939933 125.122427 125.122427 0 0 1 35.794456-85.726626 122.762086 122.762086 0 0 1 95.070658-36.938126c34.358784 1.557339 67.549564 18.882731 89.133305 45.917156a124.197758 124.197758 0 0 1 27.667094 84.388289 124.149091 124.149091 0 0 1-38.057463 84.534288z m-28.981099-116.557064c-11.461039-21.413406-36.159457-34.553451-60.249539-31.438774-28.981099 2.603676-53.55785 29.151433-54.044518 58.570533-1.679006 28.080763 18.493397 55.334189 45.454822 62.050212 17.301059 4.185348 36.743459 1.435672 51.075841-9.806367 24.795751-16.741391 32.655445-53.436183 17.763394-79.375604z"  horiz-adv-x="1024" />

    
    <glyph glyph-name="f" unicode="&#58903;" d="M846.110494-127.999898H177.909801a127.918029 127.918029 0 0 0-89.599964 36.433906A123.289551 123.289551 0 0 0 51.200092-3.583947V771.583743A123.289551 123.289551 0 0 0 88.309837 859.545307 127.836109 127.836109 0 0 0 177.909801 895.999693h668.200693c33.587187 0 65.822694-13.107195 89.579484-36.454386A123.289551 123.289551 0 0 0 972.799724 771.583743v-775.57729C972.574444-72.56056 915.906306-127.999898 846.110494-127.999898z m54.947818 912.055956c0 11.018236-4.444158 21.565431-12.369915 29.347828a42.598383 42.598383 0 0 1-29.859828 12.144635H165.191727a42.598383 42.598383 0 0 1-29.880308-12.144635c-7.905277-7.782397-12.369915-18.329593-12.369916-29.347828v-800.5424c0-11.018236 4.464638-21.565431 12.369916-29.347828 7.925757-7.761917 18.657273-12.124155 29.880308-12.124156h693.636842c11.202556 0 21.934071 4.362238 29.859828 12.124156 7.925757 7.782397 12.369915 18.329593 12.369915 29.347828V784.056058z m-156.753857-226.07863H279.695361a55.418858 55.418858 0 0 0-38.830065 15.790074 53.514219 53.514219 0 0 0-16.076793 38.113264V694.845213c0 29.777908 24.59647 53.923818 54.906858 53.923819h464.609094c30.330868 0 54.906858-24.14591 54.906858-53.923819v-82.964447c0-14.274554-5.775358-27.996149-16.097274-38.113264a55.336938 55.336938 0 0 0-38.809584-15.790074z m0.06144 136.929225H279.633921v-83.066847h464.731974V694.906653zM259.010569 447.651712h70.533092c3.788798 0 7.188477-4.546558 7.188477-9.953276v-60.968935c0-5.386238-3.399679-9.932796-7.188477-9.932797h-70.533092c-3.809278 0-6.758397 4.546558-7.188477 10.342396v60.559336c0 5.406718 3.379199 9.953276 7.188477 9.953276z m0-163.819454h70.533092c3.788798 0 7.188477-4.567038 7.188477-9.953276v-61.378536c0-5.386238-3.399679-9.953276-7.188477-9.953276h-70.533092c-3.809278 0-6.758397 4.567038-7.188477 10.772476v60.559336c0 5.386238 3.379199 9.953276 7.188477 9.953276z m0-165.887934h70.533092c3.788798 0 7.188477-4.567038 7.188477-9.953276v-60.149736c0-5.386238-3.399679-9.953276-7.188477-9.953276h-70.533092c-3.809278 0-6.758397 4.567038-7.188477 9.543676v60.559336c0 5.386238 3.379199 9.953276 7.188477 9.953276z m214.548394 329.707388h70.533092c3.809278 0 7.188477-4.546558 7.188477-9.953276v-60.968935c0-5.386238-3.379199-9.932796-7.188477-9.932797h-70.533092c-3.788798 0-7.167997 4.546558-7.167997 10.342396v60.559336c0 5.406718 3.379199 9.953276 7.167997 9.953276z m0-163.819454h70.533092c3.809278 0 7.188477-4.567038 7.188477-9.953276v-61.378536c0-5.386238-3.379199-9.953276-7.188477-9.953276h-70.533092c-3.788798 0-7.167997 4.567038-7.167997 10.772476v60.559336c0 5.386238 3.379199 9.953276 7.167997 9.953276z m0-165.887934h70.533092c3.809278 0 7.188477-4.567038 7.188477-9.953276v-60.149736c0-5.386238-3.379199-9.953276-7.188477-9.953276h-70.533092c-3.788798 0-7.167997 4.567038-7.167997 9.543676v60.559336c0 5.386238 3.379199 9.953276 7.167997 9.953276zM688.127837 447.651712h70.533092c3.809278 0 7.167997-4.546558 7.167997-9.953276v-60.968935c0-5.386238-3.358719-9.932796-7.167997-9.932797H688.127837c-3.379199 0-7.167997 4.546558-7.167997 10.342396v60.559336c0 5.406718 3.358719 9.953276 7.167997 9.953276z m0-164.229054h70.533092c3.809278 0 7.167997-13.701115 7.167997-30.679028v-184.156086c0-16.998393-3.358719-30.699508-7.167997-30.699508H688.127837c-3.379199 0-7.167997 13.701115-7.167997 28.631029v186.224565c0 16.977913 3.358719 30.679028 7.167997 30.679028z"  horiz-adv-x="1024" />

    
    <glyph glyph-name="home" unicode="&#58904;" d="M1118.978599 304.341684a37.320692 37.320692 0 0 0-52.573803 0L562.522488 806.352661 63.442087 309.14359a37.285384 37.285384 0 0 0-52.538496 0 36.932303 36.932303 0 0 0 0 52.361955L536.500397 885.160404a37.250076 37.250076 0 0 0 52.573804 0c1.023936-1.059244 1.447633-2.400953 2.365645-3.566121 0.600238-0.494314 1.341709-0.706163 1.906639-1.271092l525.632114-523.65486c14.476333-14.441025 14.476333-37.885622 0-52.326647z m-718.767579-152.707657c0 87.246386 71.251804 158.215725 158.851272 158.215726s158.851272-70.969339 158.851272-158.215726c0-87.281695-71.251804-158.286342-158.851272-158.286342s-158.851272 71.004647-158.851272 158.286342z m243.378932 0a84.457044 84.457044 0 0 1-84.52766 84.174579 84.457044 84.457044 0 0 1-84.527661-84.174579 84.492352 84.492352 0 0 1 84.527661-84.245195c46.60673 0 84.527661 37.779698 84.52766 84.245195zM197.153971 377.464819c20.549331 0 37.17946-16.594821 37.179459-37.002919v-369.217103c0-15.359036 8.6858-25.139388 14.652874-25.139388h620.151976c5.967074 0 14.652873 9.780352 14.652873 25.139388V342.050766a37.073535 37.073535 0 0 0 37.144152 37.002919 37.073535 37.073535 0 0 0 37.179459-37.002919v-370.805969c0-54.656983-39.933494-99.180534-88.976484-99.180534H248.986304c-49.042991 0-88.976485 44.523551-88.976485 99.180534V340.4619a37.073535 37.073535 0 0 0 37.144152 37.002919z"  horiz-adv-x="1129" />

    
    <glyph glyph-name="h" unicode="&#58905;" d="M512-128C399.09376-128 30.72-119.82848 30.72-14.72512c0 34.67264 27.40224 77.49632 240.90624 101.10976a34.2016 34.2016 0 1 0 7.4752-67.97312c-90.13248-9.97376-140.00128-23.4496-164.4544-33.25952 49.13152-19.29216 184.7296-44.78976 397.35296-44.78976 212.50048 0 348.11904 25.4976 397.29152 44.76928-17.83808 7.24992-51.22048 17.3056-112.0256 26.48064a34.18112 34.18112 0 0 0-28.65152 38.912 33.8944 33.8944 0 0 0 38.8096 28.71296c130.29376-19.68128 185.856-47.8208 185.856-93.96224C993.28-119.84896 624.90624-128 512-128z m0 135.2704c-22.36416 0-64.02048 0-202.50624 213.77024-63.20128 97.60768-138.5472 234.63936-138.5472 333.12768C170.94656 742.64576 323.93216 896 512 896s341.05344-153.35424 341.05344-341.83168c0-98.48832-75.34592-235.52-138.56768-333.12768-138.46528-213.77024-180.1216-213.77024-202.48576-213.77024z m0 820.36736c-150.67136 0-272.85504-122.42944-272.85504-273.46944 0-150.99904 249.2416-478.53568 272.85504-478.53568 23.61344 0 272.83456 327.53664 272.83456 478.53568 0 151.04-122.1632 273.46944-272.83456 273.46944z m-136.41728-296.2432c0 75.3664 61.19424 136.72448 136.41728 136.72448 75.20256 0 136.41728-61.35808 136.41728-136.72448 0-75.40736-61.21472-136.72448-136.41728-136.72448-75.22304 0-136.41728 61.3376-136.41728 136.72448z m204.63616 0a68.36224 68.36224 0 0 1-34.11968 59.1872 67.9936 67.9936 0 0 1-68.1984 0 68.36224 68.36224 0 0 1-34.11968-59.1872 68.28032 68.28032 0 0 1 68.21888-68.36224 68.3008 68.3008 0 0 1 68.21888 68.36224z"  horiz-adv-x="1024" />

    
    <glyph glyph-name="g" unicode="&#58906;" d="M994.964905-82.510037c-12.568766-21.844757-36.059911-34.875315-62.803676-34.875314l-448.419847-0.020078c-36.120144 0-72.240289 0.060234-108.380512 0.100389-98.702963 0.160623-200.799091 0.261013-301.148441-0.642493h-0.76296c-27.566958 0-51.620284 13.432116-64.470142 36.059911-12.749467 22.427016-11.906195 50.194753 2.228648 74.248079 30.819578 52.463556 61.177365 106.653812 90.511179 159.057134 12.669156 22.587639 25.318234 45.195356 38.047623 67.742839a34.815081 34.815081 0 0 0 47.785405 13.171104 35.658353 35.658353 0 0 0 13.030558-48.347587 22281.250191 22281.250191 0 0 1-37.927156-67.501904c-29.514515-52.724569-60.032925-107.236071-91.233983-160.34212a12.548688 12.548688 0 0 1-1.24483-2.710516 9.436614 9.436614 0 0 1 3.433321-0.501948c100.670597 0.903506 202.947426 0.803116 301.851168 0.642493 36.079989-0.040156 72.180055-0.10039 108.280122-0.10039l448.399769 0.020078h0.040156c-39.232219 70.352966-78.604984 139.782349-117.937592 209.23181l-14.134843 24.916675a35.658353 35.658353 0 0 0 12.970325 48.367665 34.774925 34.774925 0 0 0 47.805483-13.11087l14.114764-24.936753c39.995179-70.573823 80.010437-141.147646 119.563903-211.982482 12.287676-22.00538 12.448299-47.604704 0.401558-68.485722z m-197.767328 498.895692c14.676946-12.729389 16.383567-35.116249 3.814801-49.973897l-269.646214-316.287179c-6.60563-7.830382-16.243022-10.099184-26.422519-10.099184h-0.180701c-10.099184 0-19.696421 2.10818-26.362284 9.798016L203.092477 367.275108a35.035938 35.035938 0 0 0 3.312854 49.431793 34.774925 34.774925 0 0 0 49.431793-3.654178l248.664808-287.917104 243.304008 287.415157a34.734769 34.734769 0 0 0 49.391637 3.834879z m-158.595343 260.771782c19.355097 0 35.01586-15.861542 35.01586-35.437496v-34.574146c0-19.596032-15.660763-35.457574-35.01586-35.457574s-35.01586 15.861542-35.015859 35.457574v34.574146c0 19.575954 15.660763 35.437496 35.015859 35.437496z m-273.32047-105.469216c-19.355097 0-35.035938 15.861542-35.035938 35.457574v34.574146c0 19.575954 15.680841 35.437496 35.035938 35.437496 19.335019 0 35.01586-15.861542 35.01586-35.437496v-34.574146c0-19.596032-15.680841-35.457574-35.01586-35.457574z m50.957713-54.350878a34.734769 34.734769 0 0 0 48.02634-11.062924c0.963739-1.445609 14.897803-21.985302 37.304741-21.985302 23.089586 0 37.967311 21.864835 38.087779 22.085691a34.815081 34.815081 0 0 0 48.387742 10.7216 35.658353 35.658353 0 0 0 10.601132-48.949924c-12.869935-20.338914-47.785405-54.732359-97.076653-54.732359-49.532183 0-84.026017 34.654458-96.594783 55.133917a35.658353 35.658353 0 0 0 11.263702 48.789301z m406.97906-48.668833c-1.987712 0-3.995502 0.180701-6.023371 0.522025a35.417418 35.417418 0 0 0-28.530697 40.978997c2.248725 13.090792 3.393165 26.041038 3.393165 38.449181C792.057634 695.548795 661.912678 815.072541 501.952038 815.072541c-159.980718 0-290.125674-119.523746-290.125674-266.453828 0-12.307753 1.104285-25.117455 3.312854-38.087779a35.39734 35.39734 0 0 0-28.570854-40.938841 35.136327 35.136327 0 0 0-40.456971 28.912178 300.967741 300.967741 0 0 0-4.336826 50.114442C141.774567 734.62039 303.341438 885.947533 501.93196 885.947533c198.6106 0 360.177471-151.327142 360.177472-337.32882 0-16.463879-1.485765-33.469861-4.417139-50.556156a35.136327 35.136327 0 0 0-34.473756-29.394047z"  horiz-adv-x="1024" />

    
    <glyph glyph-name="i" unicode="&#58907;" d="M512-128C229.23264-128 0 101.21216 0 384 0 666.76736 229.23264 896 512 896c282.78784 0 512-229.23264 512-512 0-282.78784-229.21216-512-512-512z m0 955.51488C267.0592 827.51488 68.48512 628.9408 68.48512 384c0-244.96128 198.57408-443.51488 443.51488-443.51488C756.79744-59.16672 955.16672 139.20256 955.51488 384c0 244.9408-198.5536 443.51488-443.51488 443.51488z m100.59776-465.34656a339.23072 339.23072 0 0 1-46.26432-47.16544 126.3616 126.3616 0 0 1-16.11776-35.18464 181.88288 181.88288 0 0 1-5.75488-50.50368 35.20512 35.20512 0 0 0-34.69312-33.91488c-19.12832 0-34.63168 15.9744-34.63168 35.81952v4.05504a238.91968 238.91968 0 0 0 9.60512 76.3904 166.74816 166.74816 0 0 0 28.22144 48.59904 702.2592 702.2592 0 0 0 51.46624 51.83488 254.23872 254.23872 0 0 1 48.82432 53.73952 91.52512 91.52512 0 0 1 10.87488 43.90912 103.6288 103.6288 0 0 1-32.768 76.43136 108.1344 108.1344 0 0 1-80.32256 32.58368 108.544 108.544 0 0 1-74.48576-29.26592 164.31104 164.31104 0 0 1-39.87456-93.06112 37.0688 37.0688 0 0 0-38.85056-35.51232 37.4784 37.4784 0 0 0-34.36544 40.20224v3.95264a202.26048 202.26048 0 0 0 59.06432 128.96256 188.78464 188.78464 0 0 0 128.512 45.83424 188.66176 188.66176 0 0 0 137.54368-45.83424 153.12896 153.12896 0 0 0 52.03968-117.63712 158.47424 158.47424 0 0 0-18.00192-73.13408 358.05184 358.05184 0 0 0-70.02112-81.1008z m-73.64608-166.85056a53.88288 53.88288 0 1 0 0-107.76576 53.88288 53.88288 0 0 0 0 107.76576z"  horiz-adv-x="1024" />

    
    <glyph glyph-name="k" unicode="&#58908;" d="M1009.637669 840.975889L593.000459 430.384838c-12.78215-12.579258-33.497348-12.579258-46.279498 0a31.935085 31.935085 0 0 0 0 45.589667L963.378461 886.545267a33.030698 33.030698 0 0 0 46.259208 0 31.914796 31.914796 0 0 0 0-45.569378zM206.999829 411.313059A32.462602 32.462602 0 0 0 174.293757 443.552481a32.462602 32.462602 0 0 0 32.706072 32.219133h218.371867a32.462602 32.462602 0 0 0 32.706072-32.219133 32.462602 32.462602 0 0 0-32.706072-32.239422H206.999829z m512.990272-182.967341a32.462602 32.462602 0 0 0-32.706072-32.219133H206.999829a32.462602 32.462602 0 0 0-32.706072 32.219133 32.462602 32.462602 0 0 0 32.706072 32.239421H687.284029a32.462602 32.462602 0 0 0 32.706072-32.239421zM677.403225 784.734431H105.858534c-16.434192 0-29.743859-13.106776-29.743859-29.297499v-773.563522c0-16.190723 13.309667-29.317788 29.743859-29.317788h702.855917c7.912759-0.040578 15.541471 3.002791 21.181848 8.521433 5.620088 5.478064 8.785192 12.985041 8.785191 20.796355V548.447265c0 19.416694 15.987832 35.161056 35.688574 35.161056 19.700742 0 35.688573-15.744362 35.688573-35.161056v-566.573855a99.132672 99.132672 0 0 0-29.520679-70.910497 102.115173 102.115173 0 0 0-71.823507-29.419233H105.858534a101.95286 101.95286 0 0 0-71.661195 29.50039A99.071804 99.071804 0 0 0 4.757817-18.12659V755.436932c0.142024 54.963243 45.305619 99.497876 101.100717 99.619611h571.544691c19.721031 0 35.688573-15.744362 35.688573-35.161056 0-19.416694-15.967542-35.161056-35.688573-35.161056z"  horiz-adv-x="1033" />

    
    <glyph glyph-name="j" unicode="&#58909;" d="M960.08192 245.92384h-21.66784c-54.04672-124.70272-161.01376-221.02016-292.47488-260.608-10.79296-64.3072-66.62144-113.31584-133.8368-113.31584a135.7824 135.7824 0 0 0-135.74144 135.90528 135.84384 135.84384 0 0 0 135.74144 135.92576 135.8848 135.8848 0 0 0 128.83968-93.02016 399.38048 399.38048 0 0 1 154.4192 96.29696 403.37408 403.37408 0 0 1 76.02176 106.12736 64.34816 64.34816 0 0 0-34.36544 56.70912v190.01344a64.22528 64.22528 0 0 0 53.32992 63.11936 400.50688 400.50688 0 0 1-95.06816 151.40864 397.5168 397.5168 0 0 1-127.36512 85.99552A397.312 397.312 0 0 1 512 832a397.312 397.312 0 0 1-155.91424-31.51872 399.44192 399.44192 0 0 1-127.34464-85.99552 398.21312 398.21312 0 0 1-95.10912-151.40864 64.22528 64.22528 0 0 0 53.3504-63.11936v-190.01344a64.14336 64.14336 0 0 0-63.91808-64.02048H63.91808A64.14336 64.14336 0 0 0 0 309.94432v190.01344a64.14336 64.14336 0 0 0 63.91808 64h2.80576C123.86304 755.97824 301.64992 896 512 896s388.05504-140.02176 445.27616-332.04224h2.80576A64.14336 64.14336 0 0 0 1024 499.95776v-190.01344a64.16384 64.16384 0 0 0-63.91808-64.02048zM512 79.83104a71.90528 71.90528 0 1 1 0-143.83104 71.94624 71.94624 0 0 1 71.82336 71.90528A71.96672 71.96672 0 0 1 512 79.83104zM123.06432 499.85536l-0.1024 0.1024H64.02048l-0.1024-0.1024v-189.82912l0.1024-0.08192h58.94144l0.1024 0.08192v189.82912z m837.0176 0l-0.1024 0.1024h-58.94144l-0.08192-0.1024v-189.82912l0.08192-0.08192h58.94144l0.1024 0.08192v189.82912z m-608.60416-83.10784a31.9488 31.9488 0 0 0 31.96928-31.98976c0-34.42688 13.39392-66.72384 37.66272-91.0336A127.63136 127.63136 0 0 1 512 256.02048a127.63136 127.63136 0 0 1 90.89024 37.70368 127.8976 127.8976 0 0 1 37.66272 91.0336 31.9488 31.9488 0 1 0 63.91808 0c0-106.41408-86.20032-192.73728-192.47104-192.73728s-192.47104 86.3232-192.47104 192.73728a31.9488 31.9488 0 0 0 31.9488 31.98976z"  horiz-adv-x="1024" />

    
    <glyph glyph-name="store" unicode="&#58920;" d="M1096.342127 564.928127a36.65092 36.65092 0 0 1-2.290682 8.375308l-91.448341 233.542241C986.747286 855.272136 941.255763 884.943633 888.033186 885.0868H246.140995C192.238372 885.0868 150.32604 855.665847 135.150268 809.17215L36.82988 570.833793a52.614114 52.614114 0 0 1-1.395885-5.583539 227.529199 227.529199 0 0 1-10.737574-68.756267c0.107376-81.498189 43.666135-155.909579 113.710912-194.242719l0.035792-0.035792 0.035791-0.035792 0.035792-0.035792c28.848283-15.784234 62.743226-23.765831 100.933199-23.765831a211.601797 211.601797 0 0 1 163.748008 78.455876 211.351254 211.351254 0 0 1 162.960586-78.062165 210.850167 210.850167 0 0 1 162.10158 78.241125 210.993335 210.993335 0 0 1 164.141719-78.133749c38.905811 0.214751 73.4808 8.625851 102.579626 24.982756 68.971019 38.655267 111.778148 112.816114 111.742357 193.455297a220.156065 220.156065 0 0 1-10.379656 67.610926z m-138.693668-190.806695c-17.681206-9.91436-39.729025-15.032604-65.356035-15.175772-47.49587 0-90.804087 17.180119-116.10897 59.164034a63.244313 63.244313 0 0 1-10.415447 16.857992c-6.442545 7.408926-18.110709 16.177945-37.402551 16.177945-15.533691 0-29.599913-6.514128-37.58151-16.535864-5.261411-6.084625-8.124765-12.133459-10.200695-16.535865-24.982756-41.447037-67.933053-58.877699-114.462542-59.235618-47.137951 0.250543-90.231416 17.609622-115.321548 59.414578-1.789596 3.686567-4.688741 9.878568-9.270106 15.13998-18.32546 22.44153-59.378786 21.260397-75.377772 1.68222a65.141284 65.141284 0 0 1-10.952325-17.75279c-25.197508-41.482829-68.541516-58.770323-115.822635-58.949283-25.197508 0-46.780032 4.8677-64.174902 14.38835h-0.107376c-44.632517 24.374294-79.672801 71.762788-79.708593 123.625272 0 15.354731 2.505434 30.781046 7.48051 45.849442 0.357919 1.073757 0.680046 2.290683 0.966381 3.507608L207.951022 788.162296c2.004347 6.013042 8.017389 24.30271 38.118389 24.30271h642.106943c12.34821-0.75163 33.644399-3.006521 41.232285-25.841762l97.96247-239.197363c0.357919-1.68222 0.787422-3.292856 1.181133-4.581365 5.04666-15.104188 7.516302-30.458919 7.516302-45.634691 0.107376-51.289813-34.503405-98.427764-78.420085-123.088393z m29.241994-128.457181c-21.546732 0-36.07825-17.895957-36.078249-40.01536l0.071584-218.402261a22.298363 22.298363 0 0 0-21.904652-22.513114l-739.890453-0.501087a22.190987 22.190987 0 0 0-21.940443 22.334154l-0.286335 214.644111c-0.035792 22.083611-14.567309 39.943776-36.07825 39.943776h-0.071584c-21.546732-0.035792-36.042458-17.967541-36.006666-40.122736l0.286336-214.500942c0-56.443849 41.87654-99.322562 96.996087-99.322563l734.163747 0.501087c55.047964 0.107376 96.924504 43.129257 96.924504 99.608898l-0.071584 218.330677c0 22.119403-14.567309 40.01536-36.114042 40.01536z m-115.894218 283.221418H246.785249c-21.546732 0-39.013187 14.889436-39.013186 37.00884 0 22.083611 17.466454 36.973047 39.013186 36.973047h624.210986c21.582524 0 39.013187-14.889436 39.013187-36.973047 0-22.119403-17.430662-37.008839-39.013187-37.00884z"  horiz-adv-x="1134" />

    
    <glyph glyph-name="mine" unicode="&#58913;" d="M944.530875-66.538246a37.238012 37.238012 0 1 0-73.084238-14.072504 366.658334 366.658334 0 0 1-359.699403 297.502025c-175.457843 0-326.729535-125.167969-359.97776-297.502025a37.145226 37.145226 0 0 0-43.547443-29.598653 37.299869 37.299869 0 0 0-29.536795 43.671157 442.526144 442.526144 0 0 0 150.65312 255.439155 440.732287 440.732287 0 0 0 122.384397 72.280095A331.152322 331.152322 0 0 0 279.19523 315.955522a327.842964 327.842964 0 0 0-96.280675 233.170576c0 88.0846 34.23794 170.849484 96.280675 233.170576A326.018178 326.018178 0 0 0 511.747234 878.855705c87.837171 0 170.354627-34.330725 232.521076-96.559031a327.842964 327.842964 0 0 0 96.280674-233.170576 328.36875 328.36875 0 0 0-168.900984-288.006951 436.031142 436.031142 0 0 0 122.229755-72.218238 443.299359 443.299359 0 0 0 150.65312-255.439155z m-178.426987 615.788058c0 140.601332-114.03368 255.068012-254.356654 255.068012-140.353903 0-254.387583-114.46668-254.387583-255.068012 0-140.725046 114.157394-255.068012 254.387583-255.068011 140.19926 0 254.356654 114.46668 254.356654 255.068011z"  horiz-adv-x="1024" />

    
    <glyph glyph-name="v" unicode="&#58912;" d="M740.894118 384c-42.164706-42.164706-69.270588-114.447059-87.341177-210.823529-18.070588-99.388235-15.058824-168.658824 9.035294-207.811765 24.094118-39.152941 60.235294-57.223529 111.435294-57.22353 51.2 0 93.364706 18.070588 126.494118 54.211765 42.164706 42.164706 69.270588 114.447059 87.341177 210.82353 18.070588 99.388235 12.047059 168.658824-12.047059 210.823529-21.082353 36.141176-57.223529 54.211765-108.42353 54.211765s-93.364706-18.070588-126.494117-54.211765z m141.552941-42.164706c9.035294-9.035294 12.047059-24.094118 15.058823-45.17647 3.011765-24.094118-3.011765-63.247059-12.047058-126.494118-12.047059-60.235294-21.082353-102.4-33.129412-129.505882-9.035294-21.082353-18.070588-33.129412-30.117647-42.164706-12.047059-9.035294-21.082353-12.047059-33.129412-12.047059-12.047059 0-21.082353 3.011765-30.117647 12.047059-9.035294 6.023529-12.047059 24.094118-15.058824 45.17647s3.011765 63.247059 12.047059 126.494118c12.047059 60.235294 21.082353 102.4 33.129412 129.505882 9.035294 21.082353 18.070588 33.129412 30.117647 42.164706 12.047059 9.035294 21.082353 12.047059 33.129412 12.047059 12.047059 0 21.082353-3.011765 30.117647-12.047059zM99.388235 763.482353H0V865.882353h298.164706v-415.623529L695.717647 865.882353H993.882353L99.388235-67.764706V763.482353z"  horiz-adv-x="1024" />

    
    <glyph glyph-name="v1" unicode="&#58914;" d="M980.557576 436.751515H899.878788c-18.618182-31.030303-43.442424-62.060606-80.678788-83.781818s-68.266667-40.339394-96.193939-49.648485l-15.515152-93.090909c52.751515 15.515152 102.4 43.442424 145.842424 77.575758L785.066667-96.969697h102.4l93.090909 533.721212zM102.4 774.981818H0V880.484848h307.2v-428.218181L716.8 880.484848H1024l-921.6-961.939393V774.981818z"  horiz-adv-x="1024" />

    
    <glyph glyph-name="v3" unicode="&#58915;" d="M662.588235-52.705881999999974c27.105882-27.105882 63.247059-39.152941 108.42353-39.152942 48.188235 0 93.364706 15.058824 132.517647 48.188236 39.152941 33.129412 63.247059 69.270588 69.270588 117.458823 6.023529 30.117647 0 57.223529-12.047059 81.317647-15.058824 21.082353-36.141176 36.141176-63.247059 42.164706 54.211765 27.105882 84.329412 63.247059 93.364706 108.42353 6.023529 33.129412 0 60.235294-21.082353 87.341176-24.094118 30.117647-60.235294 45.176471-108.423529 45.176471-27.105882 0-54.211765-6.023529-81.317647-15.058824-24.094118-12.047059-45.176471-24.094118-60.235294-45.17647-15.058824-18.070588-30.117647-45.176471-42.164706-75.294118l87.341176-15.058824c6.023529 24.094118 18.070588 39.152941 30.117647 51.2 15.058824 12.047059 30.117647 18.070588 45.176471 18.070589 18.070588 0 30.117647-6.023529 39.152941-15.058824 9.035294-9.035294 12.047059-24.094118 9.035294-42.164706-3.011765-21.082353-15.058824-36.141176-30.117647-48.188235-15.058824-12.047059-39.152941-18.070588-63.247059-18.070588l-24.094117-81.317647c18.070588 6.023529 33.129412 6.023529 48.188235 6.023529 18.070588 0 33.129412-6.023529 45.176471-21.082353s15.058824-33.129412 9.035294-60.235294c-6.023529-27.105882-15.058824-48.188235-33.129412-63.247059-18.070588-15.058824-36.141176-24.094118-57.223529-24.094117-18.070588 0-33.129412 6.023529-45.176471 18.070588-12.047059 12.047059-15.058824 33.129412-15.058824 57.223529l-93.364705-12.047059c-3.011765-42.164706 6.023529-78.305882 33.129411-105.411764zM99.388235 763.482353H0V865.882353h298.164706v-415.623529L695.717647 865.882353H993.882353L99.388235-67.76470600000005V763.482353z"  horiz-adv-x="1024" />

    
    <glyph glyph-name="v2" unicode="&#58916;" d="M761.976471 7.529411999999979c6.023529 9.035294 15.058824 18.070588 24.094117 27.105882 9.035294 9.035294 33.129412 27.105882 69.270588 57.22353 36.141176 30.117647 63.247059 51.2 75.294118 66.258823 21.082353 24.094118 39.152941 45.176471 51.2 66.258824 12.047059 21.082353 21.082353 42.164706 24.094118 66.258823 6.023529 42.164706 0 75.294118-27.105883 102.4-24.094118 27.105882-63.247059 42.164706-114.447058 42.164706-45.176471 0-87.341176-12.047059-123.482353-36.141176-36.141176-24.094118-60.235294-63.247059-75.294118-117.458824l96.376471-9.035294c6.023529 30.117647 18.070588 48.188235 33.129411 63.247059 15.058824 12.047059 33.129412 18.070588 54.211765 18.070588s36.141176-6.023529 45.176471-18.070588c9.035294-12.047059 12.047059-30.117647 9.035294-51.2-3.011765-21.082353-15.058824-39.152941-30.117647-60.235294-12.047059-15.058824-45.176471-42.164706-96.376471-84.329412-63.247059-51.2-108.423529-93.364706-132.517647-123.482353-24.094118-30.117647-42.164706-63.247059-51.2-99.388235h346.352941l15.058824 93.364705h-192.752941zM99.388235 763.482353H0V865.882353h298.164706v-415.623529L695.717647 865.882353H993.882353L99.388235-67.76470600000005V763.482353z"  horiz-adv-x="1024" />

    
    <glyph glyph-name="v4" unicode="&#58917;" d="M897.505882-82.823529l18.070589 105.411764h63.247058l15.058824 87.341177h-63.247059l57.22353 328.282353H903.529412l-283.105883-328.282353-15.058823-87.341177h210.823529l-18.070588-105.411764h99.388235z m-180.705882 189.741176l150.588235 177.694118-30.117647-177.694118h-120.470588zM99.388235 763.482353H0V865.882353h298.164706v-415.623529L695.717647 865.882353H993.882353L99.388235-67.764706V763.482353z"  horiz-adv-x="1024" />

    
    <glyph glyph-name="invite" unicode="&#58918;" d="M724.48 293.376c12.288-9.728 31.232-4.608 40.96 9.728 4.608 7.168 5.632 11.264 4.608 21.504C768 333.824 768 335.36 757.76 344.064c-16.896 11.264-33.792 21.504-53.248 28.672 24.064 24.064 43.52 50.176 55.296 81.408 14.336 33.792 22.016 69.632 22.016 108.032 0 148.992-120.832 269.312-270.848 269.312s-268.8-122.88-268.8-271.872c0-72.192 29.184-139.264 79.872-189.952-157.184-72.192-258.56-228.352-258.56-401.408 0-16.896 12.288-28.672 29.184-28.672s29.184 11.776 29.184 28.672c0 161.28 101.376 305.664 251.392 360.96 84.48-50.688 193.536-48.128 275.968 0 27.136-9.728 53.76-21.504 75.264-35.84M511.488 350.72c-116.224 0-210.432 93.696-210.432 209.408 0 115.712 94.208 209.408 210.432 209.408 116.224 0 210.432-93.696 210.432-209.408 0-28.672-4.608-57.856-16.896-83.968-9.728-24.064-26.624-45.568-46.08-65.024-38.4-38.4-91.648-60.416-147.456-60.416zM924.16 128h-94.208v94.208c0 17.408-13.312 32.768-31.232 33.28-17.92 0.512-32.768-13.824-32.768-31.744V128h-94.208c-17.408 0-32.768-13.312-33.28-31.232-0.512-17.92 13.824-32.768 31.744-32.768h95.232v-94.72c0-15.36 10.24-29.184 25.088-32.256 20.48-4.608 38.912 11.264 38.912 31.232v95.232h95.232c17.92 0 32.256 14.848 31.744 32.768 0.512 17.92-14.848 31.744-32.256 31.744z"  horiz-adv-x="1024" />

    
    <glyph glyph-name="agent" unicode="&#58919;" d="M884.224 188.416C832 336.384 694.784 440.32 538.624 451.072V514.56c87.04 13.312 151.04 88.576 151.04 176.64 0 98.304-79.872 178.176-178.176 178.688-98.816-0.512-178.688-80.384-178.688-179.2 0-88.064 64.512-162.816 151.04-176.64v-63.488c-156.16-10.752-293.376-115.2-345.6-262.656C68.096 185.856 12.288 128 12.288 57.344c0-72.192 58.88-131.072 131.072-131.072 72.192 0 131.072 58.88 131.072 131.072 0 53.248-32.256 100.864-81.408 121.344C240.128 301.056 353.28 386.048 483.84 396.8v-210.944c-60.416-12.8-103.936-66.56-103.936-128.512 0-72.192 58.88-131.072 131.072-131.072 72.192 0 131.072 58.88 131.072 131.072 0 61.952-43.52 115.2-103.936 128V396.8c130.56-10.752 243.712-95.744 290.816-218.112-49.152-19.968-81.408-68.096-81.408-121.344 0-72.192 58.88-131.072 131.072-131.072 72.192 0 131.072 58.88 131.072 131.072 0.512 70.144-55.296 128-125.44 131.072zM220.16 57.344c0-42.496-34.304-76.8-76.8-76.8s-76.8 34.304-76.8 76.8 34.816 76.8 77.312 76.8c3.072 0 5.632 0 8.704-0.512 1.024 0 2.56-0.512 3.584-0.512 36.864-6.656 64-38.4 64-75.776z m166.912 633.344c0 68.608 55.808 123.904 123.904 123.904 68.608 0 123.904-55.808 123.904-123.904 0-68.608-55.808-123.904-123.904-123.904s-123.904 55.808-123.904 123.904z m200.704-633.344c0-42.496-34.304-76.8-76.8-76.8s-76.8 34.304-76.8 76.8c1.024 42.496 35.84 75.776 78.336 75.264 41.472-1.024 74.752-34.304 75.264-75.264z m291.328-76.8c-41.984-6.656-81.408 21.504-88.064 63.488-6.656 41.984 21.504 81.408 63.488 88.064 4.096 0.512 8.192 1.024 12.288 1.024 1.024 0 2.56 0 3.584 0.512 41.984 5.632 80.896-24.064 86.016-66.048 5.632-41.984-24.064-80.896-66.048-86.016-4.096-1.024-7.68-1.024-11.264-1.024z"  horiz-adv-x="1024" />

    
    <glyph glyph-name="eye" unicode="&#58921;" d="M1119.7 285.529l-10.073 18.133A635.152 635.152 0 0 1 958.52 484.99l115.345 72.53a24.68 24.68 0 0 1 7.556 33.748 24.177 24.177 0 0 1-33.244 7.555l-130.96-82.1A628.604 628.604 0 0 1 732.365 609.4l56.917 175.787A24.177 24.177 0 1 1 742.94 800.3l-57.924-178.81a498.149 498.149 0 0 1-210.038 0L417.055 800.3a24.177 24.177 0 1 1-46.34-15.11L427.632 609.4a629.611 629.611 0 0 1-166.217-80.087l-18.637-12.592-130.959 82.101a24.177 24.177 0 0 1-25.688-41.302l115.345-72.531A650.766 650.766 0 0 1 67.998 333.883q-9.57-15.11-18.133-30.725l-3.526-6.044-6.044-10.578a26.192 26.192 0 0 1 0-25.688l10.074-19.644A657.818 657.818 0 0 1 260.91 15.551a576.22 576.22 0 0 1 318.835-103.256 576.22 576.22 0 0 1 318.835 103.256 661.344 661.344 0 0 1 209.535 225.653l9.57 18.133a26.192 26.192 0 0 1 0 24.68z m-54.901-17.63c-82.102-151.106-274.51-302.213-485.053-302.213S176.795 116.793 95.197 267.9l-3.022 5.037 3.022 5.036q7.052 13.096 15.615 26.696C201.476 446.206 382.3 580.691 579.746 580.691c210.542 0 402.951-151.107 484.55-302.214v-4.03zM579.746 469.376A195.935 195.935 0 1 0 384.818 273.44a195.431 195.431 0 0 0 194.928 195.935z m0-339.99A144.055 144.055 0 1 0 723.298 273.44a144.055 144.055 0 0 0-143.552-144.055z m0 0"  horiz-adv-x="1183" />

    
    <glyph glyph-name="boil" unicode="&#58922;" d="M485.376 623.616c-10.24-14.336-6.144-34.816 8.192-43.008 6.144-4.096 12.288-6.144 18.432-6.144 10.24 0 20.48 4.096 26.624 14.336 18.432 26.624 36.864 83.968 0 135.168-20.48 28.672 0 63.488 2.048 65.536 8.192 14.336 4.096 34.816-10.24 43.008-14.336 10.24-34.816 4.096-43.008-10.24-16.384-26.624-34.816-86.016 2.048-135.168 16.384-28.672-4.096-61.44-4.096-63.488zM688.128 588.8c-10.24-14.336-6.144-34.816 8.192-43.008 6.144-4.096 12.288-4.096 16.384-4.096 10.24 0 20.48 4.096 26.624 14.336 2.048 2.048 47.104 71.68 2.048 149.504-24.576 43.008-2.048 83.968 0 86.016 8.192 14.336 4.096 34.816-10.24 43.008s-34.816 4.096-43.008-10.24c-2.048-2.048-43.008-73.728 0-149.504 24.576-47.104 0-86.016 0-86.016z m294.912-69.632H40.96c-22.528 0-40.96-18.432-40.96-40.96s18.432-40.96 40.96-40.96h26.624v-303.104c0-112.64 92.16-202.752 202.752-202.752h481.28c112.64 0 202.752 92.16 202.752 202.752V437.248h28.672c22.528 0 40.96 18.432 40.96 40.96s-18.432 40.96-40.96 40.96zM874.496 134.144c0-67.584-55.296-122.88-122.88-122.88h-481.28c-67.584 0-122.88 55.296-122.88 122.88v69.632c53.248-22.528 151.552-45.056 301.056-14.336 18.432 4.096 38.912 8.192 57.344 12.288 110.592 26.624 225.28 53.248 364.544-12.288l4.096-55.296z m0 92.16c-145.408 61.44-266.24 34.816-372.736 8.192-18.432-4.096-38.912-8.192-57.344-12.288-155.648-32.768-251.904-2.048-294.912 18.432V437.248h724.992v-210.944zM280.576 588.8c-10.24-14.336-6.144-34.816 8.192-43.008 6.144-4.096 12.288-4.096 16.384-4.096 10.24 0 20.48 4.096 26.624 14.336 2.048 2.048 47.104 71.68 2.048 149.504-24.576 43.008-2.048 83.968 0 86.016 8.192 14.336 4.096 34.816-10.24 43.008s-34.816 4.096-43.008-10.24c-2.048-2.048-43.008-73.728 0-149.504 24.576-47.104 0-86.016 0-86.016z m0 0"  horiz-adv-x="1024" />

    
    <glyph glyph-name="cake" unicode="&#58923;" d="M199.452 276.686l80.938-341.815c2.89-11.563 13.007-20.234 25.292-20.234h393.124c11.562 0 21.68 7.949 25.293 18.789l102.617 361.326c9.394 0 17.343 0.723 24.57 2.89 34.687 9.395 57.09 38.302 64.316 63.594 5.059 18.067 2.89 37.578-7.227 54.922-12.285 21.68-35.41 39.746-65.761 50.586C823.102 622.837 734.939 730.512 599.08 768.09c-1.446 46.973-39.746 84.55-87.441 84.55-46.973 0-85.273-36.855-87.441-83.827-105.508-28.184-163.32-93.945-194.394-150.312-32.52-57.812-41.914-114.902-44.082-138.75-34.687-12.285-63.594-41.19-75.156-76.6-9.395-29.63-5.059-58.536 12.285-77.325 26.738-28.183 53.476-42.636 76.601-49.14M511.64 800.61c19.511 0 35.41-15.899 35.41-35.41s-15.899-35.41-35.41-35.41-34.688 15.898-34.688 35.41 15.899 35.41 34.688 35.41zM325.917-32.61L253.65 273.795c20.235 2.891 37.578 10.84 49.863 19.512l57.813-325.917h-35.41z m88.886 0l-57.09 321.581c19.512-13.008 39.746-19.512 59.98-19.512l30.352-302.069h-33.242z m122.129 317.245l-18.79-316.522H500.8l-31.797 316.522c-1.445-0.723-2.89-2.168-5.058-2.89 17.343 9.394 31.074 23.124 39.745 35.41 0.723 0.722 1.446 1.445 1.446 2.168v-0.723s0-0.723 0.722-0.723c7.227-8.672 17.344-20.957 31.075-33.242z m59.257-317.245h-25.293l16.621 284.003c11.563-5.058 24.57-7.95 38.3-9.394h7.95c3.613 0 6.504 0 10.117 0.722l-47.695-275.33z m102.617 291.23c25.293 15.175 37.578 36.855 46.25 51.308 2.89 4.336 5.781 10.84 7.949 12.285 1.445 1.445 2.89 2.168 3.613 3.613 6.504-5.78 13.008-10.117 19.512-14.453L679.294-32.61h-29.629l49.14 291.23m166.211 118.515c-2.89-9.395-13.008-23.848-28.183-28.184-18.067-5.058-36.856 7.95-49.863 20.235-0.723 0.722-2.168 2.168-3.614 2.89-23.125 15.176-43.359 11.563-67.206-12.285-6.504-6.504-10.84-14.453-15.899-23.125-13.008-22.402-25.293-44.082-71.542-41.914-30.352 2.168-61.426 29.63-80.215 54.2-10.117 14.452-26.016 22.402-43.36 23.124-17.343 0-33.241-9.394-44.081-24.57-5.781-7.95-20.234-23.125-39.023-25.293-15.176-1.445-31.797 5.059-49.14 20.234-10.84 13.73-25.294 21.68-41.915 23.125-12.285 0.723-31.796-2.89-50.585-23.125-6.504-7.226-25.293-18.066-47.696-18.066-25.292 0-49.14 12.285-71.542 36.855-4.336 4.336-4.336 15.176-0.723 26.016 5.781 17.344 21.68 39.746 49.863 45.527 6.504 1.445 12.285 5.059 15.899 10.84l5.78 8.672c2.891 3.613 4.337 8.672 4.337 13.008 0.722 9.394 12.285 201.62 200.897 252.206 15.176-24.57 42.637-40.469 73.711-40.469 31.074 0 57.812 15.898 73.71 39.746 167.656-44.805 200.898-201.62 207.402-273.163 0.723-10.84 8.672-20.234 19.512-23.125 23.847-5.781 43.36-17.344 50.586-31.074 3.613-3.613 4.336-8.672 2.89-12.285z"  horiz-adv-x="1024" />

    
    <glyph glyph-name="mask" unicode="&#58924;" d="M542.958 321.355c-0.122-0.183-12.353-17.853-30.756-17.853-17.823 0-29.058 16.236-29.872 17.457-9.191 14.418-28.254 18.779-42.824 9.75-14.65-9.11-19.155-28.367-10.055-43.017 10.767-17.325 40.303-46.658 82.752-46.658 42.224 0 72.126 29.099 83.137 46.291 9.212 14.387 5.033 33.318-9.222 42.723-14.275 9.436-33.573 5.42-43.16-8.693z m309.38-192.537c-0.618 0.462-1.3 0.758-1.94 1.168l-74.792 74.801c-12.201 12.201-31.966 12.201-44.167 0-12.201-12.19-12.201-31.966 0-44.167l59.282-59.289c-62.056-67.24-157.496-102.705-278.265-102.705-121.145 0-216.804 35.684-278.844 103.325l58.663 58.67c12.2 12.201 12.2 31.977 0 44.167-12.201 12.201-31.987 12.201-44.167 0l-78.878-78.887c-0.214-0.214-0.356-0.47-0.563-0.689-0.802-0.847-1.493-1.755-2.183-2.673-0.566-0.749-1.15-1.48-1.64-2.265-0.568-0.915-1.023-1.871-1.49-2.83-0.428-0.881-0.875-1.746-1.217-2.655-0.355-0.949-0.597-1.918-0.858-2.893-0.259-0.965-0.537-1.918-0.702-2.9-0.167-0.994-0.216-1.992-0.287-2.998-0.069-0.983-0.162-1.955-0.137-2.94 0.023-1.02 0.167-2.026 0.291-3.043 0.12-0.976 0.216-1.944 0.428-2.908 0.215-0.978 0.544-1.927 0.856-2.89 0.319-0.983 0.62-1.959 1.038-2.912 0.391-0.89 0.89-1.738 1.37-2.6 0.531-0.958 1.056-1.908 1.698-2.817 0.184-0.262 0.296-0.552 0.49-0.81 73.04-97.423 192.73-148.92 346.133-148.92s273.093 51.497 346.135 148.93c10.35 13.808 7.543 33.38-6.254 43.73z m3.113 507.022c-9.14 14.62-28.407 19.073-43.038 9.913-14.63-9.15-19.063-28.418-9.913-43.039 45.946-73.438 70.236-162.951 70.236-258.858 0-39.734-4.27-76.906-12.71-110.477-4.198-16.725 5.958-33.695 22.693-37.904a31.32 31.32 0 0 1 7.626-0.945c13.98 0 26.71 9.465 30.279 23.64 9.669 38.543 14.58 80.83 14.58 125.687 0 107.64-27.574 208.61-79.753 291.983z m-546.194 64.958c57.944 44.655 127.813 68.263 202.054 68.263 75.197 0 145.81-24.188 204.21-69.941a31.09 31.09 0 0 1 19.247-6.65c9.272 0 18.443 4.108 24.604 11.967 10.645 13.583 8.256 33.217-5.317 43.852-69.503 54.456-153.444 83.24-242.744 83.24-88.16 0-171.216-28.102-240.18-81.257-13.666-10.533-16.208-30.146-5.674-43.8 10.533-13.665 30.166-16.227 43.8-5.674z m-144.336-467.41c-8.44 33.573-12.71 70.745-12.71 110.468 0 96.854 24.738 187.067 71.528 260.881 9.232 14.57 4.91 33.868-9.66 43.11-14.61 9.242-33.877 4.9-43.108-9.66-53.134-83.84-81.226-185.623-81.226-294.332 0-44.848 4.91-87.134 14.58-125.678 3.568-14.183 16.288-23.64 30.279-23.64a31.32 31.32 0 0 1 7.625 0.946c16.733 4.211 26.89 21.18 22.692 37.906z m186.196 348.117c-74.628 0-135.347-51.375-135.347-114.524s60.72-114.523 135.347-114.523 135.346 51.375 135.346 114.524-60.719 114.523-135.346 114.523z m0-166.58c-39.5 0-72.879 23.842-72.879 52.057s33.38 52.057 72.879 52.057 72.879-23.842 72.879-52.057-33.38-52.057-72.88-52.057z m322.75 166.58c-74.628 0-135.347-51.375-135.347-114.524s60.719-114.523 135.347-114.523 135.346 51.375 135.346 114.524-60.719 114.523-135.346 114.523z m0-166.58c-39.5 0-72.88 23.842-72.88 52.057s33.38 52.057 72.88 52.057 72.878-23.842 72.878-52.057-33.378-52.057-72.878-52.057z"  horiz-adv-x="1024" />

    
    <glyph glyph-name="grieved" unicode="&#58926;" d="M512 895.936C229.184 895.936 0 666.816 0 384c0-282.752 229.184-512 512-512s512 229.248 512 512C1024 666.816 794.752 895.936 512 895.936z m0-941.824c-237.376 0-429.76 192.512-429.76 429.824C82.176 621.376 274.56 813.824 512 813.824c237.312 0 429.824-192.448 429.824-429.824S749.248-45.888000000000034 512-45.888000000000034zM214.08 455.168a1.476 1.476 0 1 1 188.928 0 1.476 1.476 0 1 1-188.928 0z m406.912 0a1.476 1.476 0 1 1 188.928 0 1.476 1.476 0 1 1-188.928 0z m-256.96-345.024c41.664 30.72 92.416 49.088 147.968 49.088s106.368-18.304 147.968-49.088c17.344-12.992 41.984-9.28 54.912 8.128 12.992 17.472 9.344 42.048-8.064 55.04C652.608 213.76 585.024 238.144 512 238.144s-140.608-24.384-194.88-64.832c-17.408-12.992-21.056-37.568-8.128-55.04 12.992-17.408 37.632-21.056 55.04-8.128z"  horiz-adv-x="1024" />

    
    </font>
</defs>
</svg>
